<?xml version="1.0" encoding="UTF-8"?><svg xmlns="http://www.w3.org/2000/svg" viewBox="0 0 240 240"><defs><style>.cls-1{fill:#fff;}.cls-2,.cls-3,.cls-4{fill:#f0ab00;}.cls-5{fill:#970a82;}.cls-3{opacity:.7;}.cls-4{opacity:.4;}</style></defs><g id="Outlines"><path class="cls-1" d="M120,25.71l16.14,41.25,25.01-26.98v37.6l8.28-4.71,18.45-10.48-4.12,10.48-9.72,24.71H65.97l-9.72-24.71-4.12-10.49,18.45,10.49,8.28,4.71V39.99l25,26.98,16.14-41.25m0-10.98l-3.73,9.52-13.82,35.31-20.67-22.3-6.93-7.48v40.92l-2.3-1.31-18.45-10.49-9.84-5.59,4.14,10.53,4.12,10.49,9.72,24.71,1,2.54h113.52l1-2.54,9.72-24.71,4.12-10.48,4.14-10.54-9.84,5.59-18.45,10.48-2.31,1.31V29.79l-6.93,7.48-20.67,22.3-13.82-35.31-3.73-9.52h0Z"/><g><polygon class="cls-1" points="119.84 115.84 119.84 115.84 119.84 115.84 119.84 115.84"/><polygon class="cls-1" points="158.42 139.71 143.63 131.64 158.42 123.58 160.33 127.09 151.98 131.64 160.33 136.2 158.42 139.71"/><polygon class="cls-1" points="119.84 115.84 119.84 115.84 119.84 115.84 119.84 115.84"/><path class="cls-1" d="M141.4,216.72l-49.57-9.91v-33.62c-15.34-7.64-26.04-25.36-26.04-43.18,0-4.96,.69-9.91,2.05-14.72l3.85,1.09c-1.26,4.45-1.9,9.03-1.9,13.63,0,16.43,9.87,32.75,24.01,39.69l2.03,1v32.83l41.57,8.31v-31.75h14.21c7.25,0,8.58-2.07,8.58-6.14v-29.67h9.76v-14.27c0-4.59-.64-9.18-1.9-13.63l3.85-1.09c1.36,4.81,2.05,9.76,2.05,14.72v18.27h-9.76v25.67c0,8.98-6.72,10.14-12.58,10.14h-10.21v32.63Z"/></g></g><g id="Solid_Color"><path class="cls-5" d="M178.53,97.59l-5.97,14.75H67.29l-5.97-14.75h117.21Z"/></g><g id="_0_"><rect class="cls-4" x="119.93" y="97.59" width="29.3" height="14.75"/></g><g id="_0_-2"><rect class="cls-3" x="90.63" y="97.59" width="29.29" height="14.75"/></g><g id="_00_"><path class="cls-2" d="M67.4,97.59h-6.08l5.97,14.75h23.34v-14.75h-23.23Z"/></g></svg>